<svg version="1.2" xmlns="http://www.w3.org/2000/svg" viewBox="0 0 465 44" width="465" height="44">
	<title>bifl-logo</title>
	<style>
		.s0 { fill: #000000 } 
	</style>
	<path id="✱" class="s0" aria-label="✱"  d="m8.8 8.2l10.9 6.3v-12.6h8.6v12.6l10.9-6.3 4.3 7.5-10.9 6.2 10.9 6.4-4.3 7.4-10.9-6.3v12.6h-8.6v-12.6l-10.9 6.3-4.3-7.5 10.9-6.3-10.9-6.2z"/>
	<path id="BUY IT FOR LIFE" class="s0" aria-label="BUY IT FOR LIFE"  d="m64 37v-32.8h10.6q5.5 0 8.2 2 2.8 2.1 2.8 6.2 0 3.2-1.7 5-1.6 1.8-4.7 2 3.7 0.4 5.6 2.6 1.9 2.1 1.9 6 0 4.7-2.8 6.9-2.9 2.1-9.3 2.1zm6.2-20.1h4.3q2.5 0 3.6-0.9 0.5-0.4 0.7-1.1 0.3-0.6 0.3-1.7 0-2-1.1-3-0.4-0.4-1.2-0.6-0.8-0.3-2.3-0.3h-4.3zm0 14.9h4.3q3.1 0 4.4-1.1 1.2-1 1.2-3.6 0-2.7-1.3-3.9-1.3-1.1-4.3-1.1h-4.3zm31.7 5.8q-5.9 0-8.6-3-2.6-3.1-2.6-9.7v-20.7h6.4v22.3q0 2.5 1.3 3.8 1.2 1.4 3.5 1.4 2.2 0 3.4-1.4 1.3-1.3 1.3-3.8v-22.3h6.5v20.7q0 6.7-2.7 9.7-2.7 3-8.5 3zm23.8-0.6v-13l-10.1-19.8h7l6.4 13.1 6.3-13.1h7l-10.1 19.8v13zm47.7 0v-5.7h6.5v-21.4h-6.5v-5.7h19.5v5.7h-6.5v21.4h6.5v5.7zm33.6 0v-27.2h-8.3v-5.6h23.1v5.6h-8.3v27.2zm47.9 0v-32.8h20.4v5.7h-13.9v7.3h12.7v5.7h-12.7v14.1zm36.6 0.6q-3 0-5.1-1.1-2.1-1.1-3.5-3.2-2.9-4.3-2.9-12.7 0-8.4 2.9-12.8 1.5-2.2 3.7-3.2 2.2-1 4.9-1 5.7 0 8.6 4.3 2.9 4.3 2.9 12.7 0 8.4-2.9 12.7-1.4 2.1-3.5 3.2-2.2 1.1-5.1 1.1zm0-5.8q2.5 0 3.6-2.7 1.2-2.6 1.2-8.5 0-6-1.2-8.6-1.1-2.6-3.6-2.6-2.5 0-3.6 2.6-1.2 2.6-1.2 8.6 0 5.9 1.2 8.5 1.1 2.7 3.6 2.7zm16.5 5.2v-32.8h9.3q6.4 0 9.1 2.2 1.4 1.1 2.1 3 0.7 1.8 0.7 4.2 0 1.8-0.4 3.1-0.4 1.4-1.3 2.4-0.8 0.9-1.9 1.6-1.2 0.6-2.8 0.8 1 0.2 1.7 0.9 0.3 0.3 0.7 1 0.5 0.7 1 1.8l5.9 11.8h-7.1l-3.9-8.3-0.5-1q-0.9-1.9-1.9-2.8-1-0.9-2.2-0.9h-2.1v13zm6.5-18.4h3.1q2.6 0 3.8-1.1 0.5-0.5 0.8-1.3 0.3-0.8 0.3-2.1 0-2.4-1.1-3.5-1.2-1-3.8-1h-3.1zm49.8 18.4v-32.8h6.4v27.1h13.9v5.7zm25.9 0v-5.7h6.6v-21.4h-6.6v-5.7h19.6v5.7h-6.6v21.4h6.6v5.7zm27.3 0v-32.8h20.4v5.7h-13.9v7.3h12.7v5.7h-12.7v14.1zm26.7 0v-32.8h20.5v5.7h-14v7.1h12.7v5.7h-12.7v8.6h14v5.7z"/>
</svg>